# AST/ASF file generated using VICON BodyLanguage
# -----------------------------------------------
:version 1.10
:name VICON
:units
  mass 1.0
  length 0.45
  angle deg
:documentation
   .ast/.asf automatically generated from VICON data using
   VICON BodyBuilder and BodyLanguage model FoxedUp or BRILLIANT.MOD
:root
   order TX TY TZ RX RY RZ
   axis XYZ
   position 0 0 0  
   orientation 0 0 0 
:bonedata
  begin
     id 1 
     name lhipjoint
     direction 0.567149 -0.783011 0.255413 
     length 2.28399 
     axis 0 0 0  XYZ
  end
  begin
     id 2 
     name lfemur
     direction 0.34202 -0.939693 0  
     length 7.34031  
     axis 0 0 20  XYZ
    dof rx ry rz
    limits (-160.0 20.0)
           (-70.0 70.0)
           (-60.0 70.0)
  end
  begin
     id 3 
     name ltibia
     direction 0.34202 -0.939693 0   
     length 6.9833   
     axis 0 0 20   XYZ
    dof rx
    limits (-10.0 170.0)
  end
  begin
     id 4 
     name lfoot
     direction 0.136498 -0.375025 0.91691   
     length 2.33665   
     axis -90 7.62852e-016 20   XYZ
    dof rx rz
    limits (-45.0 90.0)
           (-70.0 20.0)
  end
  begin
     id 5 
     name ltoes
     direction 1.5367e-011 -4.21617e-011 1   
     length 1.15039   
     axis -90 7.62852e-016 20   XYZ
    dof rx
    limits (-90.0 20.0)
  end
  begin
     id 6 
     name rhipjoint
     direction -0.602854 -0.758518 0.247423   
     length 2.35775  
     axis 0 0 0  XYZ 
  end
  begin
     id 7 
     name rfemur
     direction -0.34202 -0.939693 0   
     length 7.43932   
     axis 0 0 -20   XYZ
    dof rx ry rz
    limits (-160.0 20.0)
           (-70.0 70.0)
           (-70.0 60.0)
  end
  begin
     id 8 
     name rtibia
     direction -0.34202 -0.939693 0   
     length 7.11893   
     axis 0 0 -20   XYZ
    dof rx
    limits (-10.0 170.0)
 end
 begin
     id 9 
     name rfoot
     direction -0.131771 -0.362037 0.922803   
     length 2.53019  
     axis -90 -7.62852e-016 -20   XYZ
    dof rx rz
    limits (-45.0 90.0)
           (-20.0 70.0)
  end
  begin
     id 10 
     name rtoes
     direction -1.53733e-011 -4.21932e-011 1   
     length 1.24596   
     axis -90 -7.62852e-016 -20   XYZ
    dof rx
    limits (-90.0 20.0)
  end
  begin
     id 11 
     name lowerback
     direction 0.0235427 0.999023 -0.0374125   
     length 2.21768   
     axis 0 0 0   XYZ
    dof rx ry rz
    limits (-20.0 45.0)
           (-30.0 30.0)
           (-30.0 30.0)
  end
  begin
     id 12 
     name upperback
     direction 0.0302156 0.996818 -0.073759   
     length 2.20352   
     axis 0 0 0   XYZ
    dof rx ry rz
    limits (-20.0 45.0)
           (-30.0 30.0)
           (-30.0 30.0)
  end
  begin
     id 13 
     name thorax
     direction 0.0187169 0.998235 -0.0563532   
     length 2.22103   
     axis 0 0 0   XYZ
    dof rx ry rz
    limits (-20.0 45.0)
           (-30.0 30.0)
           (-30.0 30.0)
  end
  begin
     id 14 
     name lowerneck
     direction -0.119528 0.987423 0.103481   
     length 1.72948   
     axis 0 0 0   XYZ
    dof rx ry rz
    limits (-20.0 45.0)
           (-30.0 30.0)
           (-30.0 30.0)
  end
  begin
     id 15 
     name upperneck
     direction 0.248049 0.963095 -0.104496   
     length 1.74979   
     axis 0 0 0   XYZ
    dof rx ry rz
    limits (-20.0 45.0)
           (-30.0 30.0)
           (-30.0 30.0)
  end
  begin
     id 16
     name head
     direction 0.0903589 0.994284 -0.056876  
     length 1.78268  
     axis 0 0 0   XYZ
    dof rx ry rz
    limits (-20.0 45.0)
           (-30.0 30.0)
           (-30.0 30.0)
  end
  begin
     id 17 
     name lclavicle
     direction 0.946008 0.242039 -0.215608  
     length 3.80783  
     axis 0 0 0   XYZ
    dof ry rz
    limits (-20.0 10.0)
           (0.0 20.0)
  end
  begin
     id 18 
     name lhumerus
     direction 1 -4.48991e-011 -2.25695e-027   
     length 4.83125   
     axis 180 -30 -90   XYZ
    dof rx ry rz
    limits (-60.0 90.0)
           (-90.0 90.0)
           (-90.0 90.0)
  end
  begin
     id 19
     name lradius
     direction 0.999991 0.00366712 -0.00211721   
     length 3.00391   
     axis 180 -30 -90   XYZ
    dof rx
    limits (-10.0 170.0)
  end
  begin
     id 20
     name lwrist
     direction 0.999991 0.00393016 -0.00141978   
     length 1.50195   
     axis -1.00488e-014 90 90   XYZ
    dof ry
    limits (-180.0 0.0)
 end
  begin
     id 21 
     name lhand
     direction 1 -4.49123e-011 2.72098e-026   
     length 1.2717   
     axis -1.73687e-014 90 90   XYZ
    dof rx rz
    limits (-90.0 90.0)
           (-45.0 45.0)
  end
  begin
     id 22 
     name lfingers
     direction 1 -4.48678e-011 5.4479e-026   
     length 1.02528   
     axis -3.47372e-014 90 90   XYZ
    dof rx
    limits (0.0 90.0)
  end
  begin
     id 23
     name lthumb
     direction 0.707107 -6.34851e-011 0.707107   
     length 1.4721   
     axis -90 45 -1.62303e-014   XYZ
    dof rx rz
    limits (-45.0 45.0)
           (-45.0 45.0)
  end
  begin
     id 24 
     name rclavicle
     direction -0.981723 0.189447 -0.0181673   
     length 3.74989  
     axis 0 0 0   XYZ 
    dof ry rz
    limits (-10.0 20.0)
           (-20.0 0.0)
  end
  begin
     id 25 
     name rhumerus
     direction -1 -4.48985e-011 2.38206e-027  
     length 4.61118   
     axis 180 30 90   XYZ
    dof rx ry rz
    limits (-90.0 60.0)
           (-90.0 90.0)
           (-90.0 90.0)
  end
  begin
     id 26 
     name rradius
     direction -1 -4.48977e-011 7.41019e-027   
     length 2.91491   
     axis 180 30 90   XYZ
    dof rx
    limits (-10.0 170.0)
  end
  begin
     id 27 
     name rwrist
     direction -1 -4.48549e-011 1.3624e-026   
     length 1.45745   
     axis -1.00488e-014 -90 -90   XYZ
    dof ry
    limits (-180.0 0.0)
  end
  begin
     id 28
     name rhand
     direction -1 -4.49107e-011 2.72109e-026   
     length 1.30769   
     axis -1.73687e-014 -90 -90   XYZ
    dof rx rz
    limits (-90.0 90.0)
           (-45.0 45.0)
  end
  begin
     id 29
     name rfingers
     direction -1 -4.48919e-011 5.44468e-026   
     length 1.05429   
     axis -3.47372e-014 -90 -90   XYZ
    dof rx
    limits (0.0 90.0)
  end
  begin
     id 30
     name rthumb
     direction -0.707107 -6.35315e-011 0.707107   
     length 1.51376   
     axis -90 -45 1.62303e-014   XYZ
    dof rx rz
    limits (-45.0 45.0)
           (-45.0 45.0)
  end
:hierarchy
  begin
    root lhipjoint rhipjoint lowerback
    lhipjoint lfemur
    lfemur ltibia
    ltibia lfoot
    lfoot ltoes
    rhipjoint rfemur
    rfemur rtibia
    rtibia rfoot
    rfoot rtoes
    lowerback upperback
    upperback thorax
    thorax lowerneck lclavicle rclavicle
    lowerneck upperneck
    upperneck head
    lclavicle lhumerus
    lhumerus lradius
    lradius lwrist
    lwrist lhand lthumb
    lhand lfingers
    rclavicle rhumerus
    rhumerus rradius
    rradius rwrist
    rwrist rhand rthumb
    rhand rfingers
  end

#!OML:ASF X:\für Bonn\!DataBase\2005_08_11_Bastian_Final\c3d\Bastian.ASF
:FULLY-SPECIFIED
:DEGREES
16
root -25.304 17.6587 -26.8098 176.172 128.551 -549.169
lowerback 3.0526 -1.72283 0.197813
upperback 6.08912 -2.2796 2.0478
thorax 4.65572 -1.1438 1.98534
lowerneck -2.14343 -3.78363 -5.93704
upperneck -0.240707 -4.98331 12.8253
head 0.769954 -2.40054 4.73485
rclavicle 1.14102e-013 -4.09496e-014
rhumerus -37.4921 4.38725 -86.8338
rradius 50.733
rwrist -1.63413
rhand -10.597 4.33027
rfingers 7.12502
rthumb 15.4087 -25.0755
lclavicle 1.14102e-013 -4.09496e-014
lhumerus -29.951 -18.6223 92.3168
lradius 47.0353
lwrist 15.5571
lhand -13.6983 -7.08304
lfingers 7.12502
lthumb 12.42 22.528
rfemur -37.3446 -3.68252 27.2432
rtibia 60.1329
rfoot -23.03 -0.674314
rtoes -9.79547
lfemur 4.81313 9.17383 -15.7973
ltibia 17.2448
lfoot -21.8534 7.91105
ltoes -19.7288
17
root -25.2579 17.6514 -26.7564 176.199 128.768 -549.165
lowerback 3.18758 -1.80675 0.208615
upperback 6.10798 -2.3908 2.10916
thorax 4.60587 -1.20009 2.04558
lowerneck -2.20228 -3.71594 -6.1993
upperneck -0.299439 -4.88042 12.8967
head 0.761312 -2.34884 4.80254
rclavicle -1.20364e-013 2.90226e-014
rhumerus -37.7404 3.91454 -86.2099
rradius 49.9232
rwrist -2.11607
rhand -10.6906 4.07268
rfingers 7.12502
rthumb 15.3185 -25.34
lclavicle -1.20364e-013 2.90226e-014
lhumerus -29.7768 -19.0128 92.5435
lradius 47.9005
lwrist 15.5328
lhand -13.529 -7.20761
lfingers 7.12502
lthumb 12.5832 22.3934
rfemur -38.0413 -3.82097 27.256
rtibia 60.2223
rfoot -23.2233 -0.567819
rtoes -9.98134
lfemur 5.37903 9.33544 -15.693
ltibia 16.6723
lfoot -21.8398 7.95428
ltoes -19.9201
18
root -25.209 17.6445 -26.6998 176.22 128.975 -549.131
lowerback 3.33164 -1.88226 0.208904
upperback 6.14129 -2.48959 2.14057
thorax 4.56486 -1.24989 2.08126
lowerneck -2.25586 -3.65304 -6.3785
upperneck -0.370451 -4.78406 12.9442
head 0.745858 -2.30081 4.84924
rclavicle 1.55947e-013 -3.77691e-014
rhumerus -37.9881 3.37074 -85.6213
rradius 49.0376
rwrist -2.54105
rhand -10.819 3.89416
rfingers 7.12502
rthumb 15.1948 -25.5279
lclavicle 1.55947e-013 -3.77691e-014
lhumerus -29.612 -19.4748 92.7578
lradius 48.8212
lwrist 15.5323
lhand -13.4104 -7.27909
lfingers 7.12502
lthumb 12.6975 22.3149
rfemur -38.6802 -3.92441 27.2431
rtibia 60.2646
rfoot -23.4252 -0.517407
rtoes -10.2931
lfemur 6.03768 9.4829 -15.6049
ltibia 15.9939
lfoot -21.7827 8.0418
ltoes -20.2011
19
root -25.1582 17.6374 -26.6411 176.225 129.165 -549.134
lowerback 3.45087 -1.96481 0.207338
upperback 6.18569 -2.59919 2.20678
thorax 4.5521 -1.30607 2.15332
lowerneck -2.38649 -3.59744 -6.65763
upperneck -0.401031 -4.69638 13.0369
head 0.759282 -2.25317 4.92452
rclavicle -1.82882e-014 2.22639e-014
rhumerus -38.2513 2.89461 -84.9866
rradius 48.175
rwrist -2.96837
rhand -10.9848 3.78388
rfingers 7.12502
rthumb 15.0352 -25.6502
lclavicle -1.82882e-014 2.22639e-014
lhumerus -29.3899 -19.7954 92.9907
lradius 49.7291
lwrist 15.4277
lhand -13.2526 -7.3767
lfingers 7.12502
lthumb 12.8497 22.2078
rfemur -39.328 -3.99932 27.2502
rtibia 60.251
rfoot -23.5726 -0.51525
rtoes -10.4554
lfemur 6.74284 9.61232 -15.4862
ltibia 15.214
lfoot -21.7088 8.08179
ltoes -20.363
20
root -25.1051 17.6308 -26.5816 176.243 129.348 -549.136
lowerback 3.55524 -2.03091 0.246702
upperback 6.22305 -2.68602 2.24533
thorax 4.53622 -1.34835 2.17384
lowerneck -2.42816 -3.54476 -6.90577
upperneck -0.518888 -4.60796 13.15
head 0.732024 -2.20983 5.00349
rclavicle 7.43455e-014 -2.82274e-014
rhumerus -38.5211 2.32636 -84.359
rradius 47.2379
rwrist -3.32747
rhand -11.1394 3.78772
rfingers 7.12502
rthumb 14.8862 -25.6574
lclavicle 7.43455e-014 -2.82274e-014
lhumerus -29.2065 -20.2176 93.2179
lradius 50.7208
lwrist 15.4057
lhand -13.0825 -7.44196
lfingers 7.12502
lthumb 13.0136 22.1321
rfemur -39.9991 -4.06216 27.2584
rtibia 60.1841
rfoot -23.6704 -0.511876
rtoes -10.4589
lfemur 7.48832 9.78258 -15.3664
ltibia 14.3218
lfoot -21.5312 8.14641
ltoes -20.7446
21
root -25.0495 17.6237 -26.5222 176.249 129.506 -549.148
lowerback 3.69357 -2.11349 0.300882
upperback 6.2554 -2.79372 2.28456
thorax 4.49607 -1.40029 2.18823
lowerneck -2.50804 -3.47985 -7.1414
upperneck -0.607032 -4.50396 13.2477
head 0.71714 -2.1567 5.07527
rclavicle -4.37326e-015 6.55989e-015
rhumerus -38.814 1.77658 -83.7515
rradius 46.2793
rwrist -3.5183
rhand -11.3126 3.8421
rfingers 7.12502
rthumb 14.7194 -25.6153
lclavicle -4.37326e-015 6.55989e-015
lhumerus -29.0405 -20.5929 93.4536
lradius 51.7751
lwrist 15.3521
lhand -12.9644 -7.42254
lfingers 7.12502
lthumb 13.1275 22.1443
rfemur -40.6416 -4.13531 27.2628
rtibia 60.0682
rfoot -23.7755 -0.520371
rtoes -10.2651
lfemur 8.28671 9.81221 -15.2751
ltibia 13.357
lfoot -21.3997 8.28994
ltoes -20.8838
22
root -24.9926 17.6138 -26.4614 176.286 129.637 -549.119
lowerback 3.85371 -2.18426 0.303578
upperback 6.29668 -2.8853 2.32306
thorax 4.45507 -1.44647 2.23177
lowerneck -2.68784 -3.44265 -7.32525
upperneck -0.66508 -4.43624 13.3174
head 0.729229 -2.11758 5.1269
rclavicle 1.2921e-014 -6.36111e-015
rhumerus -39.1198 1.23382 -83.1193
rradius 45.343
rwrist -3.621
rhand -11.3706 3.97143
rfingers 7.12502
rthumb 14.6634 -25.4901
lclavicle 1.2921e-014 -6.36111e-015
lhumerus -28.8506 -21.0096 93.6849
lradius 52.8487
lwrist 15.2716
lhand -12.8419 -7.43764
lfingers 7.12502
lthumb 13.2456 22.1215
rfemur -41.263 -4.17915 27.2089
rtibia 59.9187
rfoot -23.9024 -0.486565
rtoes -9.96953
lfemur 9.11725 9.87803 -15.2002
ltibia 12.3104
lfoot -21.1951 8.3756
ltoes -21.1026
23
root -24.933 17.6021 -26.3994 176.385 129.754 -549.054
lowerback 4.00963 -2.25056 0.271675
upperback 6.31547 -2.97131 2.35862
thorax 4.3944 -1.49147 2.29213
lowerneck -2.92201 -3.40596 -7.43628
upperneck -0.663746 -4.37309 13.338
head 0.764967 -2.07785 5.14982
rclavicle -6.76862e-014 9.74045e-015
rhumerus -39.4697 0.766208 -82.5335
rradius 44.4017
rwrist -3.5883
rhand -11.3922 4.08761
rfingers 7.12502
rthumb 14.6427 -25.3754
lclavicle -6.76862e-014 9.74045e-015
lhumerus -28.6693 -21.3922 93.9314
lradius 53.9195
lwrist 15.1078
lhand -12.7005 -7.44196
lfingers 7.12502
lthumb 13.3819 22.1083
rfemur -41.8968 -4.19219 27.1021
rtibia 59.7489
rfoot -24.0425 -0.43049
rtoes -9.68176
lfemur 9.93137 9.92891 -15.1615
ltibia 11.2347
lfoot -20.9974 8.49098
ltoes -21.3945
24
root -24.8727 17.5885 -26.3368 176.417 129.831 -549.04
lowerback 4.2403 -2.33294 0.26588
upperback 6.34326 -3.07643 2.39749
thorax 4.30106 -1.54461 2.34469
lowerneck -3.21089 -3.36158 -7.54392
upperneck -0.672512 -4.29542 13.3944
head 0.806139 -2.02872 5.18307
rclavicle -4.30369e-014 7.15625e-015
rhumerus -39.8061 0.406789 -82.0003
rradius 43.4407
rwrist -3.51675
rhand -11.4036 4.14902
rfingers 7.12502
rthumb 14.6317 -25.3148
lclavicle -4.30369e-014 7.15625e-015
lhumerus -28.4657 -21.7418 94.1577
lradius 54.987
lwrist 14.9272
lhand -12.5177 -7.5029
lfingers 7.12502
lthumb 13.558 22.0357
rfemur -42.4878 -4.17668 27.0063
rtibia 59.5613
rfoot -24.1933 -0.431929
rtoes -9.84678
lfemur 10.7985 9.94886 -15.0814
ltibia 10.1107
lfoot -20.7815 8.58715
ltoes -21.6761
25
root -24.8098 17.571 -26.2728 176.468 129.924 -549.018
lowerback 4.47938 -2.3891 0.241988
upperback 6.35796 -3.14648 2.43177
thorax 4.18876 -1.58093 2.4037
lowerneck -3.50574 -3.33103 -7.49466
upperneck -0.676143 -4.24056 13.3443
head 0.845878 -1.9916 5.15648
rclavicle -1.02275e-013 1.96797e-014
rhumerus -40.2032 0.132614 -81.5184
rradius 42.5173
rwrist -3.36126
rhand -11.3491 4.11415
rfingers 7.12502
rthumb 14.6842 -25.3458
lclavicle -1.02275e-013 1.96797e-014
lhumerus -28.2919 -22.1126 94.3975
lradius 56.0741
lwrist 14.6662
lhand -12.2765 -7.58309
lfingers 7.12502
lthumb 13.7905 21.9398
rfemur -43.0726 -4.0835 26.889
rtibia 59.3609
rfoot -24.3446 -0.520237
rtoes -10.3995
lfemur 11.7043 10.0098 -15.0065
ltibia 8.91447
lfoot -20.5503 8.6597
ltoes -21.7673
26
root -24.7452 17.5528 -26.207 176.572 129.96 -548.966
lowerback 4.68057 -2.46206 0.186269
upperback 6.37836 -3.24054 2.47101
thorax 4.10734 -1.63087 2.48449
lowerneck -3.81351 -3.29908 -7.432
upperneck -0.704491 -4.18133 13.2648
head 0.879058 -1.95275 5.1189
rclavicle -1.71949e-014 9.14409e-015
rhumerus -40.606 -0.0322909 -81.0726
rradius 41.6438
rwrist -3.25888
rhand -11.2168 3.99312
rfingers 7.12502
rthumb 14.8116 -25.4575
lclavicle -1.71949e-014 9.14409e-015
lhumerus -28.088 -22.4875 94.6254
lradius 57.1862
lwrist 14.401
lhand -12.0097 -7.67679
lfingers 7.12502
lthumb 14.0476 21.8285
rfemur -43.6748 -3.96 26.7198
rtibia 59.1503
rfoot -24.4898 -0.686425
rtoes -11.1568
lfemur 12.6573 10.0159 -14.9631
ltibia 7.5516
lfoot -20.2293 8.7497
ltoes -21.9112
27
root -24.6787 17.5324 -26.1398 176.643 129.998 -548.955
lowerback 4.90284 -2.54013 0.192038
upperback 6.37149 -3.33948 2.50466
thorax 3.982 -1.68025 2.52726
lowerneck -3.99381 -3.24194 -7.38442
upperneck -0.801461 -4.08749 13.2204
head 0.868779 -1.90216 5.09836
rclavicle -1.12711e-013 3.81667e-014
rhumerus -41.0965 -0.0421864 -80.7152
rradius 40.8131
rwrist -3.17259
rhand -11.1317 3.67484
rfingers 7.12502
rthumb 14.8936 -25.7698
lclavicle -1.12711e-013 3.81667e-014
lhumerus -27.9696 -22.7909 94.8697
lradius 58.3213
lwrist 14.0679
lhand -11.6761 -7.82607
lfingers 7.12502
lthumb 14.3691 21.6566
rfemur -44.2673 -3.78602 26.5488
rtibia 58.9213
rfoot -24.6119 -0.828806
rtoes -12.0664
lfemur 13.6968 10.0201 -14.8909
ltibia 6.02387
lfoot -19.8045 8.86679
ltoes -22.1483
28
root -24.6116 17.5103 -26.0708 176.79 129.99 -548.829
lowerback 5.09994 -2.6144 0.124674
upperback 6.40199 -3.43518 2.51978
thorax 3.9135 -1.73083 2.59026
lowerneck -4.12017 -3.19084 -7.35166
upperneck -1.00879 -3.99357 13.2
head 0.818495 -1.8554 5.08937
rclavicle 1.53561e-013 -5.02925e-014
rhumerus -41.5688 0.0641912 -80.4242
rradius 40.0508
rwrist -3.26929
rhand -11.0153 3.28834
rfingers 7.12502
rthumb 15.0058 -26.1479
lclavicle 1.53561e-013 -5.02925e-014
lhumerus -27.7774 -23.1811 95.097
lradius 59.495
lwrist 13.784
lhand -11.2722 -7.97185
lfingers 7.12502
lthumb 14.7582 21.4827
rfemur -44.8471 -3.59864 26.2505
rtibia 58.6961
rfoot -24.718 -0.848175
rtoes -12.302
lfemur 14.9976 9.98026 -14.8984
ltibia 3.99755
lfoot -19.1585 9.02933
ltoes -22.1025
